HIERARCHY
ROOT Reference
{
  OFFSET 0 0 0
  CHANNELS 6 Xposition Yposition Zposition Zrotation Xrotation Yrotation
  JOINT Hips
  {
    OFFSET 251.394 724.17 483.536
    CHANNELS 3 Zrotation Xrotation Yrotation
    JOINT RightUpLeg
    {
      OFFSET -0.450515 -23.4426 -1.37224
      CHANNELS 3 Zrotation Xrotation Yrotation
      JOINT RightLeg
      {
        OFFSET 112.821 0.0872427 -0.321027
        CHANNELS 3 Zrotation Xrotation Yrotation
        JOINT RightFoot
        {
          OFFSET 105.718 0.000193788 0.0213165
          CHANNELS 3 Zrotation Xrotation Yrotation
          JOINT RightToeBase
          {
            OFFSET 37.638 -0.000116272 0.00224792
            CHANNELS 3 Zrotation Xrotation Yrotation
            JOINT RightToeEnd
            {
              OFFSET 21.2112 0.114605 -0.000138184
              CHANNELS 3 Zrotation Xrotation Yrotation
              End Site
              {
                OFFSET 0 0 0
              }
            }
          }
        }
      }
    }
    JOINT LeftUpLeg
    {
      OFFSET -0.449508 23.4315 -1.37054
      CHANNELS 3 Zrotation Xrotation Yrotation
      JOINT LeftLeg
      {
        OFFSET 112.821 -0.0485242 -0.372458
        CHANNELS 3 Zrotation Xrotation Yrotation
        JOINT LeftFoot
        {
          OFFSET 105.716 0.00496094 -0.0229443
          CHANNELS 3 Zrotation Xrotation Yrotation
          JOINT LeftToeBase
          {
            OFFSET 37.639 0 0.00158905
            CHANNELS 3 Zrotation Xrotation Yrotation
            JOINT LeftToeEnd
            {
              OFFSET 21.2113 -0.125031 -0.00017438
              CHANNELS 3 Zrotation Xrotation Yrotation
              End Site
              {
                OFFSET 0 0 0
              }
            }
          }
        }
      }
    }
    JOINT Spine
    {
      OFFSET -5.01225 0.000463591 -9.60395
      CHANNELS 3 Zrotation Xrotation Yrotation
      JOINT Spine1
      {
        OFFSET 26.0222 -0.000271301 -0.000155029
        CHANNELS 3 Zrotation Xrotation Yrotation
        JOINT Spine2
        {
          OFFSET 27.173 -0.000155029 -0.000310058
          CHANNELS 3 Zrotation Xrotation Yrotation
          JOINT Spine3
          {
            OFFSET 36.3953 -0.000232544 7.75146e-005
            CHANNELS 3 Zrotation Xrotation Yrotation
            JOINT Neck
            {
              OFFSET 36.4331 0 -3.00261
              CHANNELS 3 Zrotation Xrotation Yrotation
              JOINT Head
              {
                OFFSET 23.0407 -0.000232544 -0.000310058
                CHANNELS 3 Zrotation Xrotation Yrotation
                End Site
                {
                  OFFSET 0 0 0
                }
              }
            }
            JOINT LeftShoulder
            {
              OFFSET 20.1317 6.74168 -12.6061
              CHANNELS 3 Zrotation Xrotation Yrotation
              JOINT LeftArm
              {
                OFFSET 34.2172 -5.81359e-005 7.75146e-005
                CHANNELS 3 Zrotation Xrotation Yrotation
                JOINT LeftForeArm
                {
                  OFFSET 65.4129 -0.0821605 0.0585235
                  CHANNELS 3 Zrotation Xrotation Yrotation
                  JOINT LeftHand
                  {
                    OFFSET 67.3883 0.0359667 0.0112396
                    CHANNELS 3 Zrotation Xrotation Yrotation
                    JOINT LeftHandThumb1
                    {
                      OFFSET 8.78386 2.85353 -6.05362
                      CHANNELS 3 Zrotation Xrotation Yrotation
                      JOINT LeftHandThumb2
                      {
                        OFFSET 8.25498 -0.000116272 -0.000174407
                        CHANNELS 3 Zrotation Xrotation Yrotation
                        JOINT LeftHandThumb3
                        {
                          OFFSET 7.24822 0.000310058 5.81358e-005
                          CHANNELS 3 Zrotation Xrotation Yrotation
                          JOINT LeftHandThumb4
                          {
                            OFFSET 7.0004 -3.87568e-005 -0.000310057
                            CHANNELS 3 Zrotation Xrotation Yrotation
                            End Site
                            {
                              OFFSET 0 0 0
                            }
                          }
                        }
                      }
                    }
                    JOINT LeftHandIndex1
                    {
                      OFFSET 24.0991 -1.01537 -5.40558
                      CHANNELS 3 Zrotation Xrotation Yrotation
                      JOINT LeftHandIndex2
                      {
                        OFFSET 7.26759 -0.000290679 -0.000465086
                        CHANNELS 3 Zrotation Xrotation Yrotation
                        JOINT LeftHandIndex3
                        {
                          OFFSET 7.13628 -1.93787e-005 0.000232543
                          CHANNELS 3 Zrotation Xrotation Yrotation
                          JOINT LeftHandIndex4
                          {
                            OFFSET 5.46699 9.68932e-005 -0.000387571
                            CHANNELS 3 Zrotation Xrotation Yrotation
                            End Site
                            {
                              OFFSET 0 0 0
                            }
                          }
                        }
                      }
                    }
                    JOINT LeftHandMiddle1
                    {
                      OFFSET 24.4604 -2.52837 0.918567
                      CHANNELS 3 Zrotation Xrotation Yrotation
                      JOINT LeftHandMiddle2
                      {
                        OFFSET 7.41627 -5.81359e-005 0.000116271
                        CHANNELS 3 Zrotation Xrotation Yrotation
                        JOINT LeftHandMiddle3
                        {
                          OFFSET 8.76829 3.87573e-005 -7.75142e-005
                          CHANNELS 3 Zrotation Xrotation Yrotation
                          JOINT LeftHandMiddle4
                          {
                            OFFSET 6.07588 -0.00013565 -5.81356e-005
                            CHANNELS 3 Zrotation Xrotation Yrotation
                            End Site
                            {
                              OFFSET 0 0 0
                            }
                          }
                        }
                      }
                    }
                    JOINT LeftHandRing1
                    {
                      OFFSET 22.465 -1.97467 6.3466
                      CHANNELS 3 Zrotation Xrotation Yrotation
                      JOINT LeftHandRing2
                      {
                        OFFSET 7.36666 -0.000232544 0.000387571
                        CHANNELS 3 Zrotation Xrotation Yrotation
                        JOINT LeftHandRing3
                        {
                          OFFSET 8.07624 -0.000465087 -0.000203475
                          CHANNELS 3 Zrotation Xrotation Yrotation
                          JOINT LeftHandRing4
                          {
                            OFFSET 6.04433 0.00013565 3.87571e-005
                            CHANNELS 3 Zrotation Xrotation Yrotation
                            End Site
                            {
                              OFFSET 0 0 0
                            }
                          }
                        }
                      }
                    }
                    JOINT LeftHandPinky1
                    {
                      OFFSET 19.5278 0.352933 10.4295
                      CHANNELS 3 Zrotation Xrotation Yrotation
                      JOINT LeftHandPinky2
                      {
                        OFFSET 6.16525 5.8136e-005 -0.000251921
                        CHANNELS 3 Zrotation Xrotation Yrotation
                        JOINT LeftHandPinky3
                        {
                          OFFSET 6.14448 -0.000329434 -0.00510625
                          CHANNELS 3 Zrotation Xrotation Yrotation
                          JOINT LeftHandPinky4
                          {
                            OFFSET 4.98555 0.000116272 0.000116271
                            CHANNELS 3 Zrotation Xrotation Yrotation
                            End Site
                            {
                              OFFSET 0 0 0
                            }
                          }
                        }
                      }
                    }
                  }
                }
              }
            }
            JOINT RightShoulder
            {
              OFFSET 20.1309 -6.74152 -12.6063
              CHANNELS 3 Zrotation Xrotation Yrotation
              JOINT RightArm
              {
                OFFSET 34.2171 7.75146e-005 7.75146e-005
                CHANNELS 3 Zrotation Xrotation Yrotation
                JOINT RightForeArm
                {
                  OFFSET 65.4492 0.242543 -0.176501
                  CHANNELS 3 Zrotation Xrotation Yrotation
                  JOINT RightHand
                  {
                    OFFSET 67.3888 -0.0867388 0.0597442
                    CHANNELS 3 Zrotation Xrotation Yrotation
                    JOINT RightHandThumb1
                    {
                      OFFSET 8.78307 -2.85357 -6.05302
                      CHANNELS 3 Zrotation Xrotation Yrotation
                      JOINT RightHandThumb2
                      {
                        OFFSET 8.25493 -7.75145e-005 0
                        CHANNELS 3 Zrotation Xrotation Yrotation
                        JOINT RightHandThumb3
                        {
                          OFFSET 7.24797 -0.000174408 0.000155029
                          CHANNELS 3 Zrotation Xrotation Yrotation
                          JOINT RightHandThumb4
                          {
                            OFFSET 7.00062 0 0
                            CHANNELS 3 Zrotation Xrotation Yrotation
                            End Site
                            {
                              OFFSET 0 0 0
                            }
                          }
                        }
                      }
                    }
                    JOINT RightHandIndex1
                    {
                      OFFSET 24.0991 1.01525 -5.40578
                      CHANNELS 3 Zrotation Xrotation Yrotation
                      JOINT RightHandIndex2
                      {
                        OFFSET 7.26773 7.75144e-005 0.000232543
                        CHANNELS 3 Zrotation Xrotation Yrotation
                        JOINT RightHandIndex3
                        {
                          OFFSET 7.13572 -0.000310058 3.87571e-005
                          CHANNELS 3 Zrotation Xrotation Yrotation
                          JOINT RightHandIndex4
                          {
                            OFFSET 5.46717 0 3.87572e-005
                            CHANNELS 3 Zrotation Xrotation Yrotation
                            End Site
                            {
                              OFFSET 0 0 0
                            }
                          }
                        }
                      }
                    }
                    JOINT RightHandMiddle1
                    {
                      OFFSET 24.4603 2.52899 0.918547
                      CHANNELS 3 Zrotation Xrotation Yrotation
                      JOINT RightHandMiddle2
                      {
                        OFFSET 7.41641 -0.000116272 -0.000116272
                        CHANNELS 3 Zrotation Xrotation Yrotation
                        JOINT RightHandMiddle3
                        {
                          OFFSET 8.76765 -3.87577e-005 0.000232543
                          CHANNELS 3 Zrotation Xrotation Yrotation
                          JOINT RightHandMiddle4
                          {
                            OFFSET 6.07609 -0.000193787 -0.000116271
                            CHANNELS 3 Zrotation Xrotation Yrotation
                            End Site
                            {
                              OFFSET 0 0 0
                            }
                          }
                        }
                      }
                    }
                    JOINT RightHandRing1
                    {
                      OFFSET 22.465 1.97571 6.34696
                      CHANNELS 3 Zrotation Xrotation Yrotation
                      JOINT RightHandRing2
                      {
                        OFFSET 7.36684 0.000193786 0.000155029
                        CHANNELS 3 Zrotation Xrotation Yrotation
                        JOINT RightHandRing3
                        {
                          OFFSET 8.07614 -0.000271301 0
                          CHANNELS 3 Zrotation Xrotation Yrotation
                          JOINT RightHandRing4
                          {
                            OFFSET 6.04468 0.000232543 0
                            CHANNELS 3 Zrotation Xrotation Yrotation
                            End Site
                            {
                              OFFSET 0 0 0
                            }
                          }
                        }
                      }
                    }
                    JOINT RightHandPinky1
                    {
                      OFFSET 19.5277 -0.352346 10.4296
                      CHANNELS 3 Zrotation Xrotation Yrotation
                      JOINT RightHandPinky2
                      {
                        OFFSET 6.16508 0 0.000232543
                        CHANNELS 3 Zrotation Xrotation Yrotation
                        JOINT RightHandPinky3
                        {
                          OFFSET 6.14396 -0.000155048 -0.0048834
                          CHANNELS 3 Zrotation Xrotation Yrotation
                          JOINT RightHandPinky4
                          {
                            OFFSET 4.98577 -7.75146e-005 -7.75143e-005
                            CHANNELS 3 Zrotation Xrotation Yrotation
                            End Site
                            {
                              OFFSET 0 0 0
                            }
                          }
                        }
                      }
                    }
                  }
                }
              }
            }
          }
        }
      }
    }
  }
}
MOTION
Frames:	4
Frame Time:	0.0333333
0 0 0 -90 -7.01671e-015 -180 -135.335 77.2633 23.3911 142.488 -0.192605 -95.1389 -2.61775 -2.37476 -49.1186 16.528 23.1584 35.6631 -17.1476 21.5043 58.3664 2.33956e-005 6.27579e-006 -86.4974 168.489 -22.9805 -115.342 -0.254359 -0.0903901 -5.10619 -8.91713 -2.46825 39.862 -4.22204 4.03928 52.6675 3.19963e-005 -3.84043e-006 -86.4974 0.0137847 -0.0294028 123.634 -8.36757 7.69032 -12.046 14.2151 5.16435 -13.7917 0.340219 -2.94019 -8.66867 3.73122 -6.10044 38.6746 7.98442 -12.0001 46.0664 105.841 21.8189 -31.0699 63.4017 15.2274 -8.38451 -11.0969 30.1233 28.0435 -1.02507 -46.9321 -3.57932 -158.644 -1.2508 154.969 0.000470501 -0.000143469 18.1945 0.000154597 -5.23506e-005 11.9589 0.000197218 -0.00134533 -0.000164349 36.0654 86.5083 -17.7566 -0.000314734 -0.000230523 14.4451 0.00111743 -0.00080379 10.5803 -0.000576217 -0.000438655 -2.32885 -1.69219 86.8812 32.804 0.000105746 -0.00017793 15.1989 0.000914979 -0.000701384 16.0249 -0.000505873 -0.000367424 -2.32821 -58.2513 83.2318 92.567 0.000112773 -0.000869583 16.2201 0.00153668 -0.000416074 17.0667 0.00107942 -0.00119263 -2.32153 -63.1888 86.0926 89.0506 0.00112345 -0.00115545 19.2789 0.00013415 -0.00015334 18.9148 -2.3071e-005 -1.41698e-005 -2.32874 -54.8332 -20.6855 -8.73177 -3.23592 45.0629 26.9731 7.07097 20.3105 24.5949 0.205441 35.6683 -10.3537 142.213 51.8016 169.894 -0.00019638 9.92971e-005 16.9256 7.70943e-005 8.38515e-005 18.8544 -0.000213624 1.52588e-005 -180 -95.0294 -68.1709 -102.33 -0.000199845 -0.000250639 49.7581 3.30792e-005 -6.40971e-005 45.1944 -3.05176e-005 -0.000106811 -180 -105.983 -79.9218 -76.0643 -0.000221815 2.94321e-005 65.9845 -0.000305186 0.000333932 58.5701 4.57765e-005 -4.57762e-005 -180 -16.1797 -83.9647 34.4438 -0.000106648 0.000289381 55.5556 -0.000220732 -6.77027e-005 57.7158 -4.57764e-005 -0.000198364 -180 13.4556 -78.0188 70.402 0.000194625 0.00223295 51.2384 -6.63526e-005 0.000142358 49.3612 -0.00160218 0.000656126 -180 
0 0 0 -90 -7.01671e-015 -180 -135.713 76.6856 24.2604 142.409 -0.863495 -94.7261 -2.55974 -2.28693 -49.5882 15.9794 23.1158 35.2435 -16.7455 21.2695 57.915 2.36729e-005 -1.13064e-005 -86.4974 168.943 -23.5711 -115.097 -0.243884 0.0297254 -4.51133 -8.49006 -2.77023 39.6036 -4.20657 4.05515 52.4474 3.19726e-005 -7.20576e-006 -86.4974 0.0136055 -0.0287737 123.673 -8.26061 7.41343 -12.0861 14.8389 5.10506 -13.9061 0.591353 -3.138 -8.40305 3.87531 -6.97528 38.4704 8.05563 -12.8866 46.109 105.312 21.9117 -30.6236 63.3137 15.4499 -8.20378 -10.5633 30.9582 26.9531 0.418978 -44.1128 -3.8127 -158.564 -1.26653 155.306 0.000470198 -0.000144317 18.1307 0.000155015 -5.0034e-005 12.1023 0.00019722 -0.00134533 -0.000164349 39.6282 86.4796 -20.7746 -0.000312861 -0.000227504 14.7446 0.0011268 -0.000803785 10.9501 -0.000572127 -0.000444208 -2.09602 -1.29185 86.9659 32.8083 0.000108368 -0.00017806 15.6933 0.000920266 -0.00069656 16.3905 -0.000500381 -0.000366634 -2.09537 -57.9619 83.3159 92.7059 0.000122288 -0.000866274 16.7922 0.00154682 -0.000409144 17.5092 -0.000610857 -0.00064025 -2.26238 -63.1678 86.0366 89.6872 0.0011336 -0.0011497 19.7654 0.000141407 -0.000152849 19.3055 -1.99106e-005 -1.54971e-005 -2.0959 -54.4374 -20.6439 -8.70783 -3.39172 44.1216 25.3865 7.35709 20.7554 24.7962 -0.0473546 36.7372 -9.97494 142.213 51.8015 169.894 -0.000197008 9.58212e-005 16.9256 7.63748e-005 8.04754e-005 18.8544 -0.000213624 1.52588e-005 -180 -95.0293 -68.1709 -102.33 -0.000200627 -0.000254528 49.7581 3.28788e-005 -6.36901e-005 45.1944 -3.05204e-005 -9.15525e-005 179.998 -105.983 -79.9218 -76.0642 -0.000221974 2.74635e-005 65.9845 -0.00030513 0.000332744 58.5701 7.62941e-005 -3.24611e-014 179.998 -16.1797 -83.9647 34.4438 -0.000107136 0.000284076 55.5556 -0.000220225 -7.05723e-005 57.7157 -4.57764e-005 -0.000213622 -180 13.4556 -78.0188 70.402 0.000146536 0.00206409 51.2393 -6.54969e-005 0.000139644 49.3612 -0.00144959 0.000579833 -180 
0 0 0 -90 -7.01671e-015 -180 -135.326 76.2519 24.3324 141.602 -1.11916 -94.2611 -2.41705 -2.12663 -50.1019 15.4036 23.1449 34.4924 -15.7755 20.5329 56.9912 2.42656e-005 -2.88225e-005 -86.4974 168.166 -23.5486 -115.254 -0.229852 0.232429 -4.03583 -8.30974 -1.79962 39.4093 -4.2128 4.04801 52.5334 3.19489e-005 -1.18863e-005 -86.4974 0.0130462 -0.0270471 123.708 -7.95136 7.24775 -12.1033 15.4234 5.16184 -14.0514 0.740152 -3.18899 -8.12095 3.5401 -7.57408 38.6861 8.29685 -13.6357 45.9131 104.824 22.0047 -30.1619 63.2373 15.5252 -8.59047 -10.598 32.1316 26.3166 1.14196 -43.196 -4.22033 -158.364 -1.30203 156.15 0.000469259 -0.000144978 17.9577 0.000155804 -5.04569e-005 12.4915 0.000197222 -0.00134533 -0.000164349 48.9792 86.3558 -28.6458 -0.00031002 -0.000226678 15.5576 0.00114546 -0.000798112 11.9539 -0.000568052 -0.000445391 -1.86318 -0.205609 87.1964 32.8205 0.000114696 -0.000181923 17.0357 0.000934983 -0.000690787 17.3826 -0.000495886 -0.000372876 -1.86254 -57.1817 83.5445 93.0716 0.000144947 -0.000858309 18.345 0.0015754 -0.000396974 18.7103 -0.000591965 -0.000644211 -2.08542 -63.0233 85.8848 91.3277 0.00115695 -0.00114452 21.0857 -0.00515973 -0.00212421 20.3593 -1.4136e-005 -1.71923e-005 -1.86307 -54.3502 -20.5911 -9.02154 -3.01424 42.9101 23.7252 7.7931 20.4367 24.8791 -0.111579 38.8142 -9.68764 142.213 51.8016 169.894 -0.00020016 9.15633e-005 16.9256 7.94288e-005 7.84122e-005 18.8544 -0.000213624 3.24611e-014 -180 -95.0294 -68.1709 -102.33 -0.000203839 -0.000268925 49.7581 6.50686e-006 -9.29716e-005 45.1944 -4.5781e-005 -7.62938e-005 179.997 -105.983 -79.9218 -76.0643 -0.000226649 1.0802e-005 65.9845 -0.000299256 0.000332936 58.5702 9.15548e-005 3.05175e-005 179.996 -16.1798 -83.9647 34.4437 -0.000102586 0.000281049 55.5556 -0.000224207 -8.98998e-005 57.7158 -4.57764e-005 -0.00024414 -180 13.4556 -78.0188 70.402 9.50318e-005 0.0018977 51.2403 -5.60019e-005 0.000143982 49.3612 -0.00128174 0.000503539 -180 
0 0 0 -90 -7.01671e-015 -180 -135.836 75.3653 25.3223 141.297 -1.71475 -93.8425 -2.25101 -1.9298 -50.8807 14.5504 22.9857 34.0984 -14.457 19.4571 55.739 2.49982e-005 -6.46665e-005 -86.4974 167.893 -23.8861 -115.257 -0.216409 0.470511 -3.63292 -7.95913 -1.23273 39.1622 -4.22184 4.03757 52.6584 3.19241e-005 -2.07919e-005 -86.4974 0.0121868 -0.0244495 123.725 -7.51138 7.06594 -12.1026 16.0696 5.22938 -14.1963 0.886135 -3.24112 -7.69256 3.07379 -8.16057 38.9525 8.60713 -13.9504 45.8294 104.351 22.0995 -29.6724 63.1015 15.5366 -9.01345 -10.7614 32.9962 25.7742 1.70947 -42.8802 -4.83007 -158.099 -1.3391 157.257 0.000467505 -0.00014559 17.7027 0.000156204 -5.3956e-005 13.065 0.000197218 -0.00134874 -0.000164349 61.5715 86.0636 -39.0551 -0.000304142 -0.000226963 16.7558 0.00117619 -0.00079094 13.4331 -0.00055919 -0.000452321 -1.63034 1.39242 87.5382 32.8416 0.000120223 -0.000184382 19.0138 0.000955882 -0.000674586 18.8447 -0.00048631 -0.000374412 -1.62971 -56.0859 83.8918 93.6643 0.000175512 -0.000846857 20.6334 0.00161586 -0.000372373 20.4803 -0.000605612 -0.000645863 -1.82463 -62.6015 85.6624 93.5372 0.00119706 -0.00112676 23.0314 -0.00517827 -0.00227668 21.9224 -7.09688e-006 -1.76389e-005 -1.63024 -54.329 -20.5506 -9.47264 -2.18171 41.4532 21.3751 8.37676 20.1596 25.2109 -0.197197 41.064 -9.63386 142.213 51.8016 169.894 -0.000199005 8.52122e-005 16.9256 7.62622e-005 7.28386e-005 18.8543 -0.000213624 -1.52588e-005 -180 -95.0294 -68.1709 -102.33 -0.000202503 -0.000280615 49.758 2.28944e-005 -8.34223e-005 45.1944 -4.57819e-005 -6.1035e-005 179.995 -105.983 -79.9218 -76.0643 -0.000222958 5.19081e-008 65.9845 -0.000303751 0.000316709 58.5701 0.000122078 7.62937e-005 179.995 -16.1798 -83.9647 34.4437 -0.000106765 0.000257571 55.5556 -0.000219401 -0.00010423 57.7157 -4.57764e-005 -0.000289916 -180 13.4556 -78.0188 70.402 4.46933e-005 0.00172833 51.2412 -5.70752e-005 0.000131284 49.3612 -0.00112915 0.000427245 -180 
